<svg id="Layer_1" data-name="Layer 1" xmlns="http://www.w3.org/2000/svg" xmlns:xlink="http://www.w3.org/1999/xlink" viewBox="0 0 1000 1000"><defs><style>.cls-1{fill:none;}.cls-2{fill:#356df3;}.cls-3{clip-path:url(#clip-path);}.cls-4{fill:#fff;fill-rule:evenodd;}</style><clipPath id="clip-path"><rect class="cls-1" x="219.46" y="191.5" width="561.08" height="617"/></clipPath></defs><circle class="cls-2" cx="500" cy="500" r="500"/><g class="cls-3"><path class="cls-4" d="M538.79,207.06,734.37,307.37a84.58,84.58,0,0,1,46.17,75.55v45.74H709.2V382.92a12.8,12.8,0,0,0-7-11.42L506.82,271.2a12.83,12.83,0,0,0-11.71,0L299.7,371.5a12.79,12.79,0,0,0-7,11.42v45.74H219.46V382.92a84.59,84.59,0,0,1,46.16-75.55l195.6-100.31A85.16,85.16,0,0,1,538.79,207.06Zm23.42,285.87a61.79,61.79,0,1,0-61.79,61.7A61.81,61.81,0,0,0,562.21,492.93Zm140,127.86a12.82,12.82,0,0,0,6.94-11.42V563.63h71.34v45.74a84.57,84.57,0,0,1-46.15,75.54L538.79,785.22a85.14,85.14,0,0,1-77.58,0L265.63,684.91a84.55,84.55,0,0,1-46.17-75.54V563.63h73.27v45.74a12.81,12.81,0,0,0,6.95,11.42L464.33,705.6V623.72C407.09,607.7,365,555.17,365,493c0-74.89,61-135.81,136-135.81S637,418.08,637,493c0,62.2-42.12,114.73-99.36,130.75v81.89Z"/></g></svg>